# xmcd CD database file
#
# Track frame offsets:
#	150
#	28829
#	56914
#	67028
#	107110
#	141002
#	164223
#	205739
#
# Disc length: 2912 seconds
#
# Revision: 0
# Processed by: cddbd v1.5.1PL2 Copyright (c) Steve Scherf et al.
# Submitted via: CDex 1.51
#
DISCID=7d0b5e08
DTITLE=Gerardo Gandini y Ernesto Jodos - De/generaciones (Dúo de pianos)
DYEAR=2006
DGENRE=Jazz
TTITLE0=Sobre nada (Gandini - Jodos)
TTITLE1=Malena (Demare - Manzi)
TTITLE2=Lunario sentimental (G. Gandini)
TTITLE3=G.G. (E. Jodos)
TTITLE4=Caravan (Ellington - Tizol)
TTITLE5=La nostalgia (G. Gandini)
TTITLE6=Visa - Loverman (Parker - Ramirez)
TTITLE7=I loves you Porgy (Gershwin)
EXTD=YEAR: 2006
EXTT0=
EXTT1=
EXTT2=
EXTT3=
EXTT4=
EXTT5=
EXTT6=
EXTT7=
PLAYORDER=
